<svg xmlns="http://www.w3.org/2000/svg" viewBox="0 0 670.92 718.37"><defs><style>.cls-1,.cls-2{fill:#fbf0ff;}.cls-2{font-size:152.28px;font-family:Montserrat-Bold, Montserrat;font-weight:700;}</style></defs><g id="Layer_2" data-name="Layer 2"><g id="Layer_1-2" data-name="Layer 1"><path class="cls-1" d="M515.43,264.63c12,29.06,16.07,65.42,6.93,111C498.43,400.37,424,463.5,336.81,474.18c-.76.07-1.49.19-2.26.26s-1.49-.19-2.26-.26c-87.24-10.68-161.65-73.81-185.54-98.57-9.3-46.21-5-83,7.47-112.28v0c-7.7-14.62-60-125,33.07-263.29,12.36,17.3,68.94,146.12,78.47,167.94h0a321.6,321.6,0,0,1,58.46-15c3.9-.65,7.38-1.11,10.29-1.49,2.91.38,6.36.84,10.26,1.49a324.77,324.77,0,0,1,60.06,15.58c8.77-20,66.27-151,78.75-168.51,100,148.6,32.19,264.94,32.19,264.94Z"/><text class="cls-2" transform="translate(0 677.87)">solid cat</text></g></g></svg>