<svg xmlns="http://www.w3.org/2000/svg" version="1.1" xmlns:xlink="http://www.w3.org/1999/xlink" xmlns:svgjs="http://svgjs.dev/svgjs" width="83.01" height="97.09"><svg xmlns="http://www.w3.org/2000/svg" viewBox="0 0 83.01 97.09"><defs><style>.cls-1{fill:#2d1434;}</style></defs><g id="SvgjsG1071" data-name="Layer 2"><g id="SvgjsG1070" data-name="Layer 1"><path class="cls-1" d="M78.33,54.15c2.46,6,3.29,13.39,1.42,22.71-4.9,5.07-20.12,18-38,20.17l-.46.06L40.86,97C23,94.85,7.77,81.93,2.89,76.86c-1.91-9.45-1-17,1.52-23h0C2.84,50.89-7.86,28.3,11.18,0c2.53,3.54,14.11,29.9,16.06,34.37h0a64.75,64.75,0,0,1,12-3.07c.8-.14,1.51-.23,2.11-.31.59.08,1.3.17,2.1.31a66.5,66.5,0,0,1,12.29,3.18C57.5,30.39,69.27,3.57,71.82,0c20.46,30.41,6.59,54.22,6.59,54.22Z"></path></g></g></svg><style>@media (prefers-color-scheme: light) { :root { filter: none; } }
@media (prefers-color-scheme: dark) { :root { filter: none; } }
</style></svg>