<?xml version="1.0" encoding="utf-8"?>
<!-- Generator: Adobe Illustrator 24.1.3, SVG Export Plug-In . SVG Version: 6.00 Build 0)  -->
<svg version="1.1" id="Layer_1" xmlns="http://www.w3.org/2000/svg" xmlns:xlink="http://www.w3.org/1999/xlink" x="0px" y="0px"
	 viewBox="0 0 670.9 718.4" style="enable-background:new 0 0 670.9 718.4;" xml:space="preserve">
<style type="text/css">
	.st0{fill:#FBF0FF;}
	.st1{enable-background:new    ;}
</style>
<g id="Layer_2_1_">
	<g id="Layer_1-2">
		<path class="st0" d="M515.4,264.6c12,29.1,16.1,65.4,6.9,111c-23.9,24.7-98.4,87.9-185.5,98.5c-0.8,0.1-1.5,0.2-2.3,0.3
			s-1.5-0.2-2.3-0.3c-87.2-10.7-161.6-73.8-185.5-98.6c-9.3-46.2-5-83,7.5-112.3l0,0c-7.7-14.6-60-125,33.1-263.3
			c12.4,17.3,68.9,146.1,78.5,167.9l0,0c19-6.8,38.5-11.8,58.5-15c3.9-0.6,7.4-1.1,10.3-1.5c2.9,0.4,6.4,0.8,10.3,1.5
			c20.5,3.3,40.6,8.5,60.1,15.6c8.8-20,66.3-151,78.8-168.5c100,148.6,32.2,264.9,32.2,264.9L515.4,264.6z"/>
		<g class="st1">
			<path class="st0" d="M18.6,676.6c-6.5-1.7-11.7-3.8-15.5-6.3l7.9-17.1c3.7,2.3,8.1,4.2,13.2,5.7c5.2,1.5,10.3,2.2,15.2,2.2
				c10.1,0,15.1-2.5,15.1-7.5c0-2.3-1.4-4-4.1-5c-2.7-1-7-1.9-12.6-2.6c-6.7-1-12.2-2.2-16.6-3.5c-4.4-1.3-8.1-3.7-11.3-7
				c-3.2-3.3-4.8-8.1-4.8-14.3c0-5.2,1.5-9.8,4.5-13.8c3-4,7.4-7.1,13.1-9.4c5.7-2.2,12.5-3.3,20.3-3.3c5.8,0,11.5,0.6,17.3,1.9
				c5.7,1.3,10.5,3,14.2,5.3l-7.9,16.9c-7.2-4.1-15.1-6.1-23.6-6.1c-5.1,0-8.9,0.7-11.4,2.1c-2.5,1.4-3.8,3.3-3.8,5.5
				c0,2.5,1.4,4.3,4.1,5.3c2.7,1,7.1,2,13.1,2.9c6.7,1.1,12.2,2.3,16.4,3.6c4.3,1.3,8,3.6,11.1,6.9c3.1,3.3,4.7,8,4.7,14
				c0,5.1-1.5,9.6-4.6,13.6c-3,4-7.5,7-13.3,9.2c-5.8,2.2-12.8,3.3-20.8,3.3C31.7,679.1,25.1,678.3,18.6,676.6z"/>
			<path class="st0" d="M107.6,673.7c-6.9-3.6-12.2-8.6-16.1-15c-3.9-6.4-5.8-13.7-5.8-21.8c0-8.1,1.9-15.4,5.8-21.8
				c3.9-6.4,9.2-11.4,16.1-15c6.9-3.6,14.6-5.4,23.2-5.4c8.6,0,16.3,1.8,23.1,5.4c6.8,3.6,12.1,8.6,16,15c3.9,6.4,5.8,13.7,5.8,21.8
				c0,8.1-1.9,15.4-5.8,21.8c-3.9,6.4-9.2,11.4-16,15c-6.8,3.6-14.5,5.4-23.1,5.4C122.2,679.1,114.4,677.3,107.6,673.7z
				 M145.8,653.4c3.9-4.1,5.9-9.6,5.9-16.5c0-6.9-2-12.4-5.9-16.5c-3.9-4.1-8.9-6.2-15-6.2s-11.1,2.1-15.1,6.2
				c-4,4.1-5.9,9.6-5.9,16.5c0,6.9,2,12.4,5.9,16.5c4,4.1,9,6.2,15.1,6.2S141.9,657.5,145.8,653.4z"/>
			<path class="st0" d="M191.6,564.9h23.8v113h-23.8V564.9z"/>
			<path class="st0" d="M238.6,580.7c-2.7-2.5-4.1-5.7-4.1-9.4c0-3.8,1.4-6.9,4.1-9.4c2.7-2.5,6.3-3.8,10.7-3.8
				c4.4,0,7.9,1.2,10.7,3.7s4.1,5.5,4.1,9.1c0,4-1.4,7.2-4.1,9.8s-6.3,3.9-10.7,3.9C244.9,584.5,241.4,583.3,238.6,580.7z
				 M237.4,595.9h23.8v81.9h-23.8V595.9z"/>
			<path class="st0" d="M366.7,564.9v113H344v-9.4c-5.9,7.1-14.4,10.7-25.6,10.7c-7.7,0-14.7-1.7-20.9-5.2
				c-6.2-3.5-11.1-8.4-14.7-14.8c-3.6-6.4-5.3-13.8-5.3-22.2c0-8.4,1.8-15.8,5.3-22.2c3.6-6.4,8.5-11.3,14.7-14.8
				c6.2-3.4,13.2-5.2,20.9-5.2c10.5,0,18.6,3.3,24.5,9.9v-39.7H366.7z M337.4,653.4c4-4.1,5.9-9.6,5.9-16.5c0-6.9-2-12.4-5.9-16.5
				c-4-4.1-8.9-6.2-14.9-6.2c-6.1,0-11.1,2.1-15.1,6.2c-4,4.1-5.9,9.6-5.9,16.5c0,6.9,2,12.4,5.9,16.5c4,4.1,9,6.2,15.1,6.2
				C328.5,659.6,333.5,657.5,337.4,653.4z"/>
			<path class="st0" d="M447.8,673.7c-7-3.6-12.4-8.6-16.3-15c-3.9-6.4-5.9-13.7-5.9-21.8c0-8.1,2-15.4,5.9-21.8
				c3.9-6.4,9.3-11.4,16.3-15c7-3.6,14.8-5.4,23.5-5.4c8.6,0,16.2,1.8,22.6,5.4c6.4,3.6,11.1,8.8,14.1,15.5l-18.4,9.9
				c-4.3-7.5-10.4-11.3-18.4-11.3c-6.2,0-11.3,2-15.4,6.1c-4.1,4.1-6.1,9.6-6.1,16.6s2,12.5,6.1,16.6c4.1,4.1,9.2,6.1,15.4,6.1
				c8.1,0,14.3-3.8,18.4-11.3l18.4,10c-2.9,6.5-7.6,11.6-14.1,15.2c-6.4,3.7-14,5.5-22.6,5.5C462.6,679.1,454.7,677.3,447.8,673.7z"
				/>
			<path class="st0" d="M584,603.8c6.8,6,10.2,15.2,10.2,27.3v46.8H572v-10.2c-4.5,7.6-12.8,11.4-25,11.4c-6.3,0-11.8-1.1-16.4-3.2
				c-4.6-2.1-8.1-5.1-10.6-8.8c-2.4-3.8-3.7-8-3.7-12.8c0-7.6,2.9-13.6,8.6-18c5.7-4.4,14.6-6.5,26.6-6.5h18.9c0-5.2-1.6-9.2-4.7-12
				c-3.1-2.8-7.9-4.2-14.2-4.2c-4.4,0-8.7,0.7-12.9,2.1c-4.2,1.4-7.8,3.2-10.7,5.6l-8.5-16.6c4.5-3.1,9.8-5.6,16.1-7.3
				c6.2-1.7,12.7-2.6,19.3-2.6C567.4,594.7,577.2,597.7,584,603.8z M563.7,660.3c3.1-1.9,5.4-4.6,6.7-8.3v-8.4h-16.3
				c-9.7,0-14.6,3.2-14.6,9.6c0,3,1.2,5.5,3.6,7.2c2.4,1.8,5.7,2.7,9.8,2.7C557,663.1,560.6,662.2,563.7,660.3z"/>
			<path class="st0" d="M668.5,673.9c-2.3,1.7-5.2,3-8.6,3.9c-3.4,0.9-7,1.3-10.7,1.3c-9.7,0-17.3-2.5-22.6-7.5
				c-5.3-5-8-12.3-8-21.9V616h-12.6v-18.3h12.6v-19.9h23.8v19.9h20.4V616h-20.4v33.3c0,3.5,0.9,6.1,2.7,8c1.8,1.9,4.3,2.8,7.5,2.8
				c3.8,0,7-1,9.6-3L668.5,673.9z"/>
		</g>
	</g>
</g>
</svg>
